<svg xmlns="http://www.w3.org/2000/svg" viewBox="0 0 280 200" width="280" height="200">
  <rect width="280" height="200" rx="0" fill="#f7f1ea"/>
  <!-- cone -->
  <polygon points="116,120 164,120 140,182" fill="#e0a96d" stroke="#c98b4f" stroke-width="2"/>
  <line x1="124" y1="128" x2="150" y2="160" stroke="#c98b4f" stroke-width="1.5" opacity="0.6"/>
  <line x1="138" y1="126" x2="150" y2="150" stroke="#c98b4f" stroke-width="1.5" opacity="0.6"/>
  <line x1="116" y1="134" x2="134" y2="170" stroke="#c98b4f" stroke-width="1.5" opacity="0.6"/>
  <!-- scoop -->
  <circle cx="140" cy="92" r="46" fill="#f3ead7" stroke="#bdb6a7" stroke-width="2.5"/>
  <circle cx="112" cy="120" r="20" fill="#f3ead7" stroke="#bdb6a7" stroke-width="2.5"/>
  <circle cx="168" cy="120" r="20" fill="#f3ead7" stroke="#bdb6a7" stroke-width="2.5"/>
  <circle cx="137" cy="97" r="3.2" fill="#4a3220"/><circle cx="138" cy="90" r="3.2" fill="#4a3220"/><circle cx="126" cy="89" r="3.2" fill="#4a3220"/><circle cx="158" cy="98" r="3.2" fill="#4a3220"/><circle cx="156" cy="95" r="3.2" fill="#4a3220"/><circle cx="143" cy="93" r="3.2" fill="#4a3220"/><circle cx="112" cy="105" r="3.2" fill="#4a3220"/><circle cx="146" cy="97" r="3.2" fill="#4a3220"/><circle cx="115" cy="69" r="3.2" fill="#4a3220"/><circle cx="127" cy="86" r="3.2" fill="#4a3220"/><circle cx="142" cy="92" r="3.2" fill="#4a3220"/><circle cx="147" cy="84" r="3.2" fill="#4a3220"/><circle cx="143" cy="95" r="3.2" fill="#4a3220"/><circle cx="129" cy="118" r="3.2" fill="#4a3220"/>
  <ellipse cx="126" cy="74" rx="16" ry="11" fill="#ffffff" opacity="0.30"/>
  <!-- cherry -->
  <circle cx="140" cy="50" r="9" fill="#e23b5a"/>
  <path d="M140 41 q8 -10 14 -8" stroke="#5a8f3c" stroke-width="3" fill="none" stroke-linecap="round"/>
</svg>